<?xml version="1.0" standalone="no"?>
<!DOCTYPE svg PUBLIC "-//W3C//DTD SVG 20010904//EN"
 "http://www.w3.org/TR/2001/REC-SVG-20010904/DTD/svg10.dtd">
<svg version="1.0" xmlns="http://www.w3.org/2000/svg"
 width="526.000000pt" height="526.000000pt" viewBox="0 0 526.000000 526.000000"
 preserveAspectRatio="xMidYMid meet">

<g transform="translate(0.000000,526.000000) scale(0.100000,-0.100000)"
fill="currentColor" stroke="none">
<path d="M900 3385 c0 -931 4 -1462 10 -1503 15 -93 46 -166 99 -235 51 -66
53 -68 976 -697 173 -118 402 -274 508 -347 l193 -131 339 235 c187 130 520
359 740 511 220 151 434 300 475 331 83 62 143 141 181 236 l24 60 3 1487 2
1488 -1775 2 -1775 3 0 -1440z m3391 1281 c2 -2 2 -634 -1 -1403 -5 -1395 -5
-1398 -26 -1444 -44 -94 -55 -103 -811 -624 -200 -137 -453 -312 -563 -389
l-201 -138 -52 35 c-29 20 -214 146 -412 280 -198 135 -506 345 -685 466 -179
121 -344 236 -367 256 -26 22 -55 62 -75 103 l-33 67 -3 1397 -2 1398 1613 0
c888 0 1616 -2 1618 -4z"/>
<path d="M2801 4224 c-139 -70 -158 -261 -36 -362 92 -75 211 -68 296 17 182
181 -28 460 -260 345z"/>
<path d="M2329 4195 c-14 -8 -32 -28 -39 -46 -13 -29 -10 -43 35 -178 26 -80
58 -166 71 -191 28 -56 104 -131 163 -160 l44 -22 -7 -106 c-12 -190 -27 -326
-43 -375 -15 -49 -14 -142 2 -179 7 -17 -14 -18 -359 -18 l-366 0 0 413 c0
375 -2 414 -18 433 -36 45 -107 58 -151 28 -51 -36 -51 -35 -51 -734 l0 -651
25 -24 c19 -20 34 -25 75 -25 28 0 60 5 72 11 33 18 48 71 48 169 l0 90 860 0
860 0 0 -110 c0 -138 8 -150 103 -150 99 0 99 -1 105 244 2 112 2 220 -2 240
-11 58 -26 66 -127 66 l-89 0 0 63 c0 89 -20 118 -103 147 l-66 23 -129 261
c-71 144 -141 273 -156 288 -44 43 -88 58 -193 65 -91 5 -105 9 -193 53 l-95
48 -44 98 c-83 187 -92 204 -118 224 -30 23 -77 25 -114 5z m801 -1027 c0 -5
-36 -8 -81 -8 l-81 0 6 28 c8 36 36 202 37 216 1 11 118 -222 119 -236z"/>
<path d="M2001 3236 c-58 -32 -69 -119 -22 -167 l29 -29 177 0 177 0 34 34
c24 24 34 43 34 65 0 39 -24 87 -49 101 -30 16 -350 12 -380 -4z"/>
<path d="M1890 2010 l0 -40 -50 0 -50 0 0 -35 0 -35 50 0 c54 0 59 -6 39 -57
-14 -38 -46 -71 -93 -95 l-39 -20 26 -26 26 -26 41 19 c23 10 54 34 70 52 l30
34 27 -30 c22 -24 37 -31 75 -33 27 -1 53 4 63 12 14 12 11 16 -32 39 -49 27
-93 80 -93 112 0 16 8 19 55 19 l55 0 0 35 0 35 -55 0 -55 0 0 40 0 40 -45 0
-45 0 0 -40z"/>
<path d="M3170 2005 l0 -45 -50 0 -50 0 0 -35 0 -35 50 0 c44 0 50 -3 50 -20
0 -43 -42 -97 -106 -137 -18 -11 -18 -12 2 -33 28 -29 65 -19 114 30 l38 38
26 -27 c14 -14 38 -34 55 -44 29 -17 30 -17 50 12 l21 29 -39 25 c-37 24 -71
78 -71 111 0 12 10 16 45 16 45 0 45 0 45 35 l0 35 -50 0 -50 0 0 45 0 45 -40
0 -40 0 0 -45z"/>
<path d="M3380 1870 l0 -180 40 0 40 0 0 70 c0 68 1 70 25 70 24 0 25 -2 25
-70 l0 -70 40 0 40 0 0 180 0 180 -40 0 -40 0 0 -75 c0 -73 -1 -75 -25 -75
-24 0 -25 2 -25 75 l0 75 -40 0 -40 0 0 -180z"/>
<path d="M2160 1955 l0 -85 -46 0 -45 0 3 -37 c3 -37 4 -38 43 -39 l40 -1 3
-71 3 -72 44 0 45 0 0 195 0 195 -45 0 -45 0 0 -85z"/>
<path d="M2860 1820 l0 -220 45 0 45 0 0 95 0 95 40 0 c39 0 40 1 40 35 0 34
-1 35 -40 35 l-40 0 0 90 0 90 -45 0 -45 0 0 -220z"/>
<path d="M2600 1949 c0 -87 -28 -142 -92 -182 l-49 -30 27 -28 c25 -26 29 -27
54 -14 41 21 88 63 95 85 9 27 17 25 37 -9 9 -16 35 -42 57 -57 l42 -27 29 28
c35 34 37 41 10 50 -31 10 -79 54 -97 89 -9 17 -19 58 -22 91 l-6 60 -42 3
-43 3 0 -62z"/>
<path d="M2001 1653 c-15 -55 -63 -108 -127 -139 l-55 -27 22 -23 c13 -13 29
-24 36 -24 29 0 112 51 141 86 l31 37 27 -32 c28 -34 119 -91 144 -91 8 0 29
11 45 24 28 23 29 25 10 32 -60 21 -83 34 -113 59 -34 28 -72 92 -72 120 0 11
-11 15 -40 15 -37 0 -40 -2 -49 -37z"/>
<path d="M3150 1625 l0 -35 175 0 175 0 0 -65 0 -65 45 0 45 0 0 100 0 100
-220 0 -220 0 0 -35z"/>
<path d="M2560 1550 l0 -100 210 0 210 0 0 40 0 40 -165 0 -165 0 0 60 0 60
-45 0 -45 0 0 -100z"/>
</g>
</svg>
