<?xml version="1.0" standalone="no"?>
<!DOCTYPE svg PUBLIC "-//W3C//DTD SVG 20010904//EN"
 "http://www.w3.org/TR/2001/REC-SVG-20010904/DTD/svg10.dtd">
<svg version="1.0" xmlns="http://www.w3.org/2000/svg"
 width="548.000000pt" height="548.000000pt" viewBox="0 0 548.000000 548.000000"
 preserveAspectRatio="xMidYMid meet">

<g transform="translate(0.000000,548.000000) scale(0.100000,-0.100000)"
fill="#000000" stroke="none">
<path d="M725 5220 c-27 -11 -61 -49 -74 -83 -8 -20 -11 -542 -11 -1707 0
-1847 -3 -1751 63 -1906 58 -138 141 -246 256 -333 42 -31 236 -165 431 -298
492 -333 984 -666 1114 -753 128 -86 194 -114 246 -105 52 10 116 48 445 270
165 111 458 307 650 437 743 500 742 499 836 632 26 38 62 102 79 143 63 150
60 63 60 1914 0 1860 4 1738 -62 1779 -33 20 -44 20 -2023 19 -1094 0 -1999
-4 -2010 -9z m1007 -187 c8 -10 66 -108 130 -218 63 -110 190 -330 283 -490
92 -159 178 -310 192 -334 l25 -43 -31 -29 -31 -28 0 -151 0 -152 -47 -53
c-111 -124 -164 -253 -171 -415 -5 -129 12 -210 69 -329 58 -120 171 -233 289
-289 120 -57 159 -66 295 -66 105 0 130 3 200 28 154 53 271 148 352 284 155
260 126 547 -79 795 l-48 58 0 144 0 144 -29 33 -29 33 68 115 c37 63 120 207
185 320 65 113 146 252 180 310 34 58 88 152 120 210 32 58 65 113 73 123 14
16 49 17 463 17 l448 0 3 -92 c9 -238 7 -3120 -2 -3201 -19 -162 -98 -307
-222 -407 -31 -25 -168 -121 -305 -212 -136 -92 -302 -204 -368 -249 -132 -90
-761 -514 -920 -620 l-100 -67 -140 96 c-409 280 -702 478 -1245 842 -347 234
-437 326 -502 516 l-23 69 -3 1650 c-1 907 0 1655 2 1662 4 10 100 13 454 13
415 0 450 -1 464 -17z m506 -10 c10 -16 90 -152 177 -303 213 -370 361 -625
428 -740 l55 -95 -190 -3 c-124 -1 -195 1 -203 8 -16 13 -81 122 -257 430 -74
129 -193 336 -265 460 -71 124 -135 235 -142 248 l-12 22 195 0 195 0 19 -27z
m807 -135 c-52 -90 -143 -247 -202 -350 -60 -104 -110 -188 -113 -188 -3 1
-52 84 -110 187 -58 102 -147 256 -197 341 -51 86 -93 160 -93 164 0 5 182 8
404 8 l405 0 -94 -162z m556 100 c-42 -69 -174 -296 -316 -543 -256 -446 -297
-515 -306 -515 -3 0 -16 19 -29 43 -13 23 -54 94 -92 158 -37 64 -68 122 -68
128 0 10 55 108 245 436 64 109 133 233 174 308 l26 47 202 0 202 0 -38 -62z
m-521 -1229 c0 -60 -2 -109 -4 -109 -2 0 -31 13 -64 30 -84 42 -170 60 -284
60 -138 0 -197 -15 -341 -88 -4 -2 -6 45 -5 104 2 60 7 109 13 110 6 2 19 -11
30 -29 l20 -32 285 0 285 0 24 37 c13 21 28 35 32 32 5 -3 9 -54 9 -115z
m-210 -121 c227 -54 408 -270 427 -509 28 -347 -299 -662 -632 -609 -274 44
-469 251 -500 530 -14 124 40 292 127 396 104 125 201 178 378 208 35 6 146
-3 200 -16z"/>
<path d="M1805 4307 c-146 -58 -224 -155 -232 -290 -3 -40 -12 -92 -21 -116
l-16 -44 -16 51 c-21 63 -59 115 -112 150 l-40 26 -17 -21 c-10 -11 -25 -56
-35 -100 -16 -68 -17 -87 -6 -138 16 -79 39 -121 94 -174 36 -35 44 -50 40
-68 -4 -13 -9 -46 -13 -74 l-6 -50 -37 49 c-26 35 -53 58 -92 76 -106 50 -128
31 -109 -100 21 -148 101 -254 212 -284 21 -5 27 -16 37 -66 20 -95 20 -97
-22 -69 -42 28 -123 48 -179 43 -35 -3 -40 -6 -43 -30 -5 -40 57 -157 113
-214 56 -56 119 -84 194 -84 46 -1 46 -1 81 -61 19 -34 36 -64 38 -69 2 -4
-19 -4 -45 1 -86 16 -205 -17 -211 -58 -5 -34 88 -127 162 -163 81 -39 137
-46 214 -26 l62 17 50 -38 c55 -41 64 -63 25 -63 -65 0 -195 -73 -195 -110 0
-46 157 -120 254 -120 61 0 124 20 179 56 l38 25 82 -35 c93 -39 180 -66 214
-66 16 0 24 7 29 26 9 33 -7 47 -76 69 -30 10 -87 30 -125 46 l-71 29 1 103
c0 125 -19 171 -107 259 -85 85 -105 79 -129 -40 -10 -45 -10 -75 -3 -112 6
-27 7 -50 3 -50 -9 0 -93 70 -97 81 -2 5 5 21 16 37 11 15 28 54 37 87 15 51
16 68 6 125 -14 73 -51 156 -83 183 -21 17 -22 17 -55 -15 -41 -40 -83 -125
-85 -173 -1 -19 -4 -35 -8 -35 -4 0 -21 27 -39 59 l-32 60 47 43 c66 61 96
126 102 218 5 81 -11 158 -33 167 -35 13 -150 -79 -188 -152 l-21 -40 -7 40
c-19 105 -19 106 36 127 68 27 110 60 150 121 40 61 71 163 61 202 -7 26 -10
27 -46 21 -60 -9 -147 -45 -181 -73 -16 -14 -32 -23 -35 -20 -3 3 -2 32 2 65
l6 60 72 4 c86 4 152 33 212 93 52 52 96 127 88 149 -15 38 -175 47 -243 13
-17 -9 -31 -13 -31 -11 0 24 39 67 89 97 108 67 166 162 178 294 8 89 -11 108
-82 80z m-5 -114 c-1 -33 -38 -101 -81 -147 -23 -25 -45 -46 -50 -46 -15 0 -9
53 10 96 17 37 93 114 113 114 4 0 8 -8 8 -17z m-355 -307 c9 -20 15 -67 15
-107 0 -64 -2 -70 -16 -58 -32 26 -54 87 -54 148 0 33 3 67 6 76 6 14 8 13 21
-4 7 -11 20 -36 28 -55z m335 -104 c0 -14 -53 -59 -95 -81 -49 -25 -105 -38
-105 -23 0 22 93 91 133 101 56 12 67 13 67 3z m-465 -313 c53 -60 104 -179
75 -179 -13 0 -80 70 -96 103 -18 33 -34 117 -24 117 4 0 24 -19 45 -41z m356
-47 c-32 -62 -151 -161 -151 -124 0 4 15 30 33 57 28 44 123 122 134 111 2 -2
-5 -22 -16 -44z m29 -329 c0 -45 -20 -105 -49 -145 -32 -46 -41 -47 -41 -5 0
46 16 94 45 139 30 45 45 49 45 11z m-342 -92 c39 -20 132 -112 132 -131 0
-30 -107 26 -154 81 -56 66 -47 85 22 50z m480 -240 c17 -54 15 -115 -4 -159
l-16 -37 -14 30 c-23 53 -12 205 15 205 4 0 13 -17 19 -39z m-203 -222 c22
-10 51 -28 65 -39 l25 -20 -58 0 c-72 0 -177 49 -177 83 0 15 99 -1 145 -24z
m448 -43 c26 -42 56 -160 43 -173 -7 -7 -40 31 -62 71 -18 33 -32 146 -18 146
5 0 22 -20 37 -44z m-67 -279 l29 -16 -40 -16 c-29 -13 -54 -16 -93 -11 -48 6
-112 29 -112 41 0 2 15 9 33 14 44 14 147 7 183 -12z"/>
<path d="M3580 4301 c-15 -29 3 -140 35 -208 31 -70 82 -124 153 -164 42 -25
82 -69 82 -92 0 -2 -24 4 -52 14 -61 21 -121 24 -184 8 -37 -10 -44 -15 -44
-36 0 -29 53 -106 109 -156 49 -44 136 -77 205 -77 l53 0 7 -46 c12 -88 11
-90 -26 -62 -47 36 -86 54 -146 68 -74 17 -84 7 -72 -78 9 -66 39 -128 91
-187 31 -35 120 -85 152 -85 13 0 17 -5 14 -17 -3 -10 -8 -39 -12 -65 -3 -26
-10 -50 -15 -53 -5 -3 -18 12 -29 34 -21 41 -86 102 -135 128 -24 12 -31 13
-41 1 -22 -24 -35 -79 -35 -152 0 -57 6 -83 28 -131 26 -54 81 -116 112 -127
8 -2 -2 -26 -27 -66 l-40 -63 -6 46 c-10 69 -86 185 -122 185 -19 0 -53 -51
-81 -119 -39 -94 -30 -209 21 -285 14 -20 25 -39 25 -41 0 -6 -102 -77 -105
-73 -2 2 1 23 7 47 20 78 -17 211 -59 211 -25 0 -135 -118 -162 -173 -27 -56
-38 -147 -23 -200 l11 -37 -47 -24 c-26 -13 -87 -36 -136 -52 -66 -21 -91 -35
-99 -51 -11 -26 5 -53 32 -53 24 0 131 35 217 71 74 31 78 31 103 15 14 -10
50 -29 80 -43 47 -22 63 -25 132 -21 66 4 91 11 156 44 96 48 102 66 42 118
-40 34 -90 57 -153 71 l-29 6 45 46 46 46 59 -16 c83 -24 138 -21 201 8 68 32
119 71 154 119 52 71 37 94 -78 116 -42 8 -72 8 -104 1 -24 -5 -45 -9 -46 -8
-1 1 16 31 37 67 l40 65 64 7 c123 12 212 86 271 224 37 88 30 100 -61 97 -52
-1 -81 -8 -126 -30 -46 -23 -58 -26 -55 -14 3 9 10 43 15 75 6 33 12 60 13 61
2 1 21 7 44 13 54 16 129 83 159 143 37 71 53 212 29 251 -18 29 -135 -25
-194 -88 -23 -25 -43 -44 -44 -42 -2 2 -8 34 -14 73 -9 58 -9 71 3 77 39 22
79 66 102 111 46 91 41 262 -10 331 -12 17 -16 17 -43 3 -46 -23 -109 -97
-129 -151 l-18 -48 -15 28 c-8 16 -16 62 -18 103 -7 162 -105 274 -276 315
-21 5 -30 2 -38 -13z m137 -121 c44 -32 93 -116 93 -157 0 -32 -14 -29 -58 15
-48 48 -109 172 -85 172 5 0 28 -14 50 -30z m357 -337 c-4 -24 -20 -64 -38
-90 l-31 -48 -3 52 c-4 61 9 115 40 163 l22 35 8 -35 c4 -19 5 -54 2 -77z
m-296 -74 c32 -12 91 -58 102 -80 9 -16 6 -17 -27 -12 -62 10 -173 76 -173
104 0 10 57 3 98 -12z m401 -358 c-20 -47 -86 -121 -108 -121 -12 0 5 63 30
112 10 20 35 50 56 67 35 29 38 30 41 12 2 -11 -7 -42 -19 -70z m-349 29 c21
-11 47 -32 58 -47 26 -37 54 -94 50 -99 -12 -11 -102 62 -128 103 -44 69 -42
74 20 43z m-8 -380 c27 -55 42 -136 27 -145 -11 -7 -54 53 -68 94 -15 47 -15
114 2 109 6 -2 24 -28 39 -58z m348 -48 c0 -5 -13 -27 -29 -49 -31 -42 -152
-114 -159 -93 -5 13 52 84 86 108 42 30 102 49 102 34z m-499 -283 c8 -42 8
-66 -3 -107 -7 -30 -17 -54 -23 -54 -33 0 -42 143 -13 207 15 33 25 21 39 -46z
m297 -186 c-30 -36 -142 -76 -189 -66 -23 4 -27 9 -18 19 20 24 94 57 144 63
63 9 80 4 63 -16z m-548 -85 c-11 -56 -37 -103 -71 -134 l-22 -19 7 58 c6 60
23 100 60 150 17 23 21 25 29 12 5 -9 4 -37 -3 -67z m203 -229 c47 -13 47 -24
0 -40 -64 -21 -193 -8 -193 19 0 24 131 39 193 21z"/>
<path d="M1642 1633 l3 -228 40 0 40 0 3 98 c3 95 3 97 27 97 42 0 55 10 55
45 0 32 -2 34 -37 37 l-38 3 -5 85 -5 85 -43 3 -42 3 2 -228z"/>
<path d="M2287 1853 c-4 -3 -7 -39 -7 -80 0 -66 -2 -73 -20 -73 -18 0 -20 7
-20 70 l0 70 -43 0 -44 0 1 -182 1 -183 28 1 c15 1 34 2 42 3 12 1 15 16 15
71 0 63 2 70 20 70 17 0 19 -8 22 -72 l3 -73 34 -3 c20 -2 37 2 42 10 5 7 9
92 9 189 0 152 -2 178 -16 183 -21 8 -59 8 -67 -1z"/>
<path d="M1948 1823 c-3 -25 -9 -29 -51 -37 -46 -9 -48 -11 -45 -40 3 -29 6
-31 46 -34 34 -3 42 -7 42 -23 0 -32 -25 -73 -71 -114 l-42 -38 27 -24 c15
-12 32 -23 38 -23 6 0 31 21 55 46 l44 46 44 -41 c50 -46 64 -49 88 -23 24 26
21 36 -18 66 -40 31 -65 73 -65 110 0 23 3 25 43 23 42 -2 42 -2 45 36 l3 37
-50 0 c-50 0 -51 1 -51 30 0 28 -2 30 -39 30 -36 0 -40 -3 -43 -27z"/>
<path d="M1380 1768 c0 -30 -9 -71 -19 -93 -16 -36 -72 -95 -114 -120 -16 -9
-15 -13 6 -39 20 -25 28 -28 53 -22 16 4 50 30 75 58 l47 50 46 -46 c48 -49
82 -58 110 -30 25 24 19 38 -27 71 -56 39 -87 101 -87 171 l0 52 -45 0 -45 0
0 -52z"/>
<path d="M3029 1810 c-46 -14 -76 -40 -105 -93 -24 -44 -29 -66 -32 -147 -5
-104 6 -159 41 -211 38 -56 81 -79 150 -79 77 0 119 29 155 109 22 48 26 70
26 151 0 52 -6 113 -13 135 -35 106 -129 164 -222 135z m93 -100 c35 -27 51
-94 46 -189 -5 -90 -28 -139 -72 -154 -22 -7 -33 -5 -55 10 -36 27 -50 74 -50
171 -1 151 56 222 131 162z"/>
<path d="M2648 1772 c-57 -36 -58 -38 -58 -85 l0 -47 53 36 52 36 3 -211 2
-211 52 0 51 0 -6 218 c-4 119 -7 236 -7 260 l0 42 -42 0 c-33 0 -57 -9 -100
-38z"/>
<path d="M3330 1551 l0 -259 26 -6 c52 -13 64 -1 64 68 0 45 5 67 15 76 9 7
17 11 19 9 1 -2 24 -37 49 -76 35 -54 52 -73 69 -74 13 0 37 -2 55 -4 40 -4
38 2 -39 118 -32 48 -61 94 -64 102 -3 8 14 36 42 67 27 29 57 63 68 76 l19
22 -59 0 -59 -1 -50 -69 c-27 -38 -53 -69 -57 -69 -5 -1 -8 62 -8 139 l0 140
-45 0 -45 0 0 -259z"/>
<path d="M3816 1655 c-35 -24 -36 -24 -36 -4 0 17 -5 20 -41 17 l-42 -3 1 -47
c0 -27 1 -111 1 -188 l1 -140 45 0 45 0 0 129 c0 144 11 174 64 174 46 0 51
-14 54 -163 l4 -140 44 0 44 0 0 133 c0 72 4 137 8 143 27 41 90 31 103 -16 4
-14 7 -78 8 -142 l1 -118 45 0 45 0 0 140 c0 150 -9 188 -50 225 -16 14 -36
20 -70 20 -40 0 -54 -5 -79 -29 l-30 -29 -30 32 c-37 39 -83 42 -135 6z"/>
<path d="M1339 1448 c0 -2 -1 -49 -2 -106 l-2 -102 208 0 207 0 0 40 0 40
-160 0 -159 0 -3 63 -3 62 -42 3 c-24 2 -43 2 -44 0z"/>
<path d="M1944 1436 c-3 -8 -4 -25 -2 -38 3 -23 4 -23 168 -25 l165 -2 3 -76
3 -76 42 3 42 3 0 110 0 110 -208 3 c-174 2 -208 0 -213 -12z"/>
<path d="M2655 3570 c-161 -25 -283 -118 -363 -279 -34 -69 -37 -82 -40 -180
-4 -116 13 -190 66 -280 60 -103 184 -193 302 -220 103 -24 241 -7 339 42 96
48 191 160 233 275 28 76 30 233 4 309 -22 66 -81 156 -137 211 -57 55 -166
109 -249 122 -72 11 -83 11 -155 0z m247 -118 c79 -38 158 -119 196 -199 24
-52 27 -70 27 -163 0 -97 -2 -110 -32 -172 -118 -249 -432 -310 -633 -122 -61
57 -116 162 -125 239 -21 161 72 337 213 409 74 37 116 46 208 42 65 -3 94
-10 146 -34z"/>
</g>
</svg>
