<?xml version="1.0" standalone="no"?>
<!DOCTYPE svg PUBLIC "-//W3C//DTD SVG 20010904//EN"
 "http://www.w3.org/TR/2001/REC-SVG-20010904/DTD/svg10.dtd">
<svg version="1.0" xmlns="http://www.w3.org/2000/svg"
 width="548.000000pt" height="548.000000pt" viewBox="0 0 548.000000 548.000000"
 preserveAspectRatio="xMidYMid meet">

<g transform="translate(0.000000,548.000000) scale(0.100000,-0.100000)"
fill="#000000" stroke="none">
<path d="M722 5220 c-67 -41 -63 86 -60 -1813 3 -1609 4 -1726 21 -1782 28
-95 91 -214 157 -293 74 -89 140 -137 605 -452 198 -134 540 -366 761 -516
220 -150 420 -283 444 -295 53 -28 131 -29 181 -3 61 31 1595 1060 1700 1141
111 84 204 205 255 331 56 139 55 90 52 1928 -2 1373 -5 1693 -16 1712 -7 13
-28 32 -45 42 -31 20 -69 20 -2027 20 -1983 0 -1995 0 -2028 -20z m3938 -1818
c0 -1833 4 -1707 -65 -1847 -66 -133 -107 -170 -466 -411 -263 -176 -1006
-676 -1232 -829 l-148 -100 -42 24 c-23 13 -103 66 -177 118 -213 147 -483
331 -765 522 -143 96 -318 215 -390 263 -71 49 -159 108 -195 132 -191 128
-267 221 -327 397 -17 51 -18 137 -21 1722 l-2 1667 1915 0 1915 0 0 -1658z"/>
<path d="M1811 4703 c-20 -16 -22 -26 -19 -97 2 -62 7 -81 21 -90 12 -8 22 -8
35 0 13 9 18 28 20 91 2 67 0 82 -16 96 -18 17 -20 17 -41 0z"/>
<path d="M1436 4554 c-26 -25 -19 -43 40 -100 57 -54 80 -64 102 -42 22 22 12
46 -41 102 -55 59 -75 66 -101 40z"/>
<path d="M2129 4513 c-32 -31 -59 -64 -59 -73 0 -25 26 -43 53 -36 28 7 117
98 117 120 0 17 -26 46 -41 46 -6 0 -37 -25 -70 -57z"/>
<path d="M2799 4536 c-5 -6 -9 -134 -9 -310 l0 -300 -192 -320 c-105 -177
-231 -385 -280 -464 -49 -78 -96 -158 -105 -177 -9 -19 -19 -35 -22 -35 -3 0
-17 17 -31 38 -25 37 -67 91 -166 215 -58 71 -86 84 -116 50 -14 -16 -259
-356 -463 -643 -45 -63 -132 -185 -193 -270 -109 -151 -125 -183 -100 -208 9
-9 384 -12 1624 -12 1751 0 1643 -3 1632 52 -5 25 -204 354 -689 1138 -104
169 -101 169 -233 -7 l-100 -133 -36 58 c-20 31 -98 158 -174 282 -77 124
-167 270 -202 326 l-64 101 0 106 0 107 234 0 c194 0 236 2 246 15 19 23 5 55
-55 123 -30 35 -55 65 -55 68 0 3 27 37 60 76 60 72 71 97 48 116 -17 13 -545
21 -559 8z m392 -135 c-23 -27 -41 -55 -41 -63 0 -8 16 -36 36 -62 21 -25 35
-48 33 -50 -2 -2 -79 -6 -172 -8 l-167 -3 0 118 0 117 176 0 176 0 -41 -49z
m-324 -628 c37 -66 207 -336 250 -400 l35 -53 -28 -34 c-16 -19 -33 -35 -38
-35 -5 -1 -31 20 -58 45 -38 36 -53 44 -71 38 -12 -4 -24 -10 -27 -13 -3 -4
-25 -35 -49 -70 l-43 -63 -47 79 c-59 100 -81 106 -158 38 l-51 -45 -26 31
-26 31 27 47 c137 234 269 450 275 451 4 0 20 -21 35 -47z m778 -580 c121
-192 161 -256 217 -348 239 -390 364 -594 380 -617 10 -14 18 -29 18 -32 0 -8
-2387 -3 -2395 6 -3 3 67 127 156 275 89 147 224 372 300 498 76 127 144 238
151 248 13 18 16 16 55 -22 22 -23 49 -41 60 -41 10 0 39 20 63 45 24 25 47
45 50 45 3 0 21 -28 39 -62 44 -82 79 -128 96 -128 8 0 40 38 72 85 32 47 60
85 63 85 3 0 21 -14 40 -31 80 -71 91 -71 140 -3 17 25 36 44 42 42 10 -4 58
-79 199 -312 94 -156 138 -210 163 -200 39 15 29 48 -59 194 -62 103 -84 149
-78 160 7 15 155 220 159 220 0 0 32 -48 69 -107z m-1610 -205 c97 -130 104
-143 92 -162 -8 -12 -39 -65 -70 -118 -31 -54 -110 -187 -177 -297 -66 -110
-120 -205 -120 -211 0 -7 -86 -10 -255 -10 -179 0 -255 3 -255 11 0 6 52 84
117 173 64 88 213 297 331 463 119 166 219 300 223 297 4 -2 55 -68 114 -146z"/>
<path d="M1750 4418 c-89 -24 -172 -121 -185 -218 -8 -61 13 -141 54 -197 43
-59 135 -103 215 -103 195 1 319 205 233 383 -58 117 -185 171 -317 135z m153
-89 c62 -32 107 -101 107 -163 -1 -44 -32 -107 -69 -139 -97 -81 -240 -37
-281 88 -26 79 18 178 95 211 37 16 119 18 148 3z"/>
<path d="M1292 4194 c-26 -18 -28 -37 -6 -58 16 -16 134 -23 168 -10 23 9 21
61 -3 74 -30 16 -133 12 -159 -6z"/>
<path d="M2214 4200 c-30 -12 -38 -39 -18 -61 14 -15 32 -19 94 -19 78 0 100
9 100 41 0 30 -40 49 -100 48 -30 0 -64 -4 -76 -9z"/>
<path d="M1477 3861 c-32 -33 -57 -64 -57 -69 0 -11 33 -42 45 -42 15 0 74 50
101 85 19 25 25 42 20 60 -11 43 -46 32 -109 -34z"/>
<path d="M2081 3898 c-11 -29 -3 -43 55 -101 47 -48 70 -57 92 -35 22 22 12
45 -45 101 -60 61 -89 70 -102 35z"/>
<path d="M1808 3799 c-15 -8 -18 -25 -18 -95 0 -80 1 -85 25 -96 43 -19 55 2
55 96 0 99 -15 123 -62 95z"/>
<path d="M1824 1857 c-2 -7 -3 -109 -2 -227 l3 -215 43 -3 42 -3 0 100 0 101
34 0 c39 0 59 19 54 52 -2 19 -11 24 -43 28 l-40 5 -3 88 -3 87 -40 0 c-23 0
-42 -5 -45 -13z"/>
<path d="M2483 1863 c-21 -4 -23 -10 -23 -79 0 -67 -2 -74 -20 -74 -18 0 -20
7 -20 70 l0 70 -40 0 -40 0 0 -179 c0 -112 4 -182 10 -186 6 -4 24 -4 40 0 28
6 29 8 32 73 2 54 6 67 20 70 15 3 18 -7 20 -70 l3 -73 40 0 40 0 3 184 c3
210 4 207 -65 194z"/>
<path d="M2130 1831 c0 -30 -18 -41 -67 -41 -20 0 -23 -5 -23 -35 0 -35 0 -35
45 -35 34 0 45 -4 45 -15 0 -30 -39 -92 -74 -119 -50 -37 -46 -63 11 -80 17
-6 31 2 64 38 l43 45 43 -39 c46 -44 63 -48 87 -24 23 23 20 36 -20 75 -38 36
-64 78 -64 103 0 11 13 16 48 18 40 3 47 6 50 26 5 34 -15 52 -58 52 -35 0
-39 3 -45 30 -6 27 -10 30 -46 30 -36 0 -39 -2 -39 -29z"/>
<path d="M1560 1778 c-1 -72 -27 -125 -90 -180 -55 -48 -57 -63 -16 -98 20
-16 53 4 114 68 l42 45 36 -37 c19 -20 48 -43 65 -51 28 -15 30 -14 54 9 32
32 31 42 -2 60 -67 35 -113 110 -113 186 l0 50 -45 0 -45 0 0 -52z"/>
<path d="M2806 1758 c-4 -35 -7 -99 -9 -143 l-2 -80 43 -3 c28 -2 47 2 58 12
24 25 81 20 109 -9 19 -18 25 -35 25 -70 0 -51 -32 -95 -70 -95 -34 0 -77 27
-84 53 -5 22 -10 24 -48 20 -24 -3 -45 -7 -46 -8 -2 -2 1 -19 7 -38 38 -114
203 -146 288 -55 52 56 65 135 34 204 -37 82 -132 120 -197 78 l-25 -17 3 64
3 64 103 3 102 3 0 39 0 40 -144 0 -144 0 -6 -62z"/>
<path d="M3190 1560 l0 -260 50 0 50 0 0 70 c0 56 3 70 15 70 9 0 36 -31 61
-70 l45 -70 56 0 55 0 -18 28 c-9 15 -42 64 -72 109 l-55 83 54 62 c92 107 90
98 23 97 l-59 0 -45 -62 c-25 -33 -51 -63 -57 -65 -10 -3 -13 28 -13 132 l0
136 -45 0 -45 0 0 -260z"/>
<path d="M3705 1681 c-12 -5 -27 -16 -34 -25 -18 -22 -30 -20 -24 4 5 18 0 20
-41 20 l-46 0 0 -190 0 -190 45 0 45 0 0 108 c0 59 5 123 10 143 12 44 46 63
81 45 23 -11 24 -15 27 -153 3 -154 4 -157 66 -146 l26 5 0 132 c0 72 4 136 8
142 15 23 51 35 72 24 34 -18 40 -45 40 -173 l0 -124 31 -7 c62 -12 59 -20 59
154 l0 160 -34 37 c-30 33 -38 37 -85 37 -43 0 -56 -5 -79 -27 l-26 -27 -21
25 c-22 27 -86 41 -120 26z"/>
<path d="M1520 1458 c-1 -2 -3 -49 -6 -105 l-4 -103 215 0 216 0 -5 28 c-2 15
-5 33 -5 40 -1 9 -40 12 -161 12 l-159 0 -3 63 -3 62 -42 3 c-24 2 -43 2 -43
0z"/>
<path d="M2130 1420 l0 -40 165 0 164 0 3 -72 3 -73 43 -3 42 -3 0 115 0 116
-210 0 -210 0 0 -40z"/>
</g>
</svg>
