<?xml version="1.0" standalone="no"?>
<!DOCTYPE svg PUBLIC "-//W3C//DTD SVG 20010904//EN"
 "http://www.w3.org/TR/2001/REC-SVG-20010904/DTD/svg10.dtd">
<svg version="1.0" xmlns="http://www.w3.org/2000/svg"
 width="548.000000pt" height="548.000000pt" viewBox="0 0 548.000000 548.000000"
 preserveAspectRatio="xMidYMid meet">

<g transform="translate(0.000000,548.000000) scale(0.100000,-0.100000)"
fill="#000000" stroke="none">
<path d="M783 5229 c-43 -5 -84 -35 -106 -74 -7 -14 -10 -531 -8 -1728 1
-1905 -3 -1777 71 -1932 57 -119 132 -209 241 -293 113 -87 125 -95 538 -373
179 -121 414 -280 521 -353 597 -406 645 -435 713 -436 55 0 112 32 397 225
550 371 825 556 1054 708 378 252 443 308 535 462 23 38 54 106 69 150 l27 80
5 615 c3 338 5 1119 5 1735 0 1052 -1 1122 -18 1152 -38 71 134 65 -2041 67
-1079 0 -1980 -2 -2003 -5z m3882 -1839 l0 -1665 -22 -70 c-24 -76 -74 -166
-125 -224 -56 -63 -126 -116 -403 -302 -148 -100 -439 -295 -645 -434 -206
-139 -409 -275 -450 -304 -41 -28 -119 -81 -172 -117 l-97 -66 -85 58 c-381
260 -891 606 -1206 819 -146 98 -297 202 -336 231 -142 106 -228 225 -265 368
-18 68 -19 150 -19 1724 l0 1652 1913 -2 1912 -3 0 -1665z"/>
<path d="M3141 4833 c-40 -20 -90 -64 -329 -292 l-182 -174 -23 19 c-12 11
-49 44 -82 76 -147 138 -185 160 -277 159 -47 0 -70 -6 -109 -28 -61 -35 -939
-887 -939 -911 0 -24 19 -42 44 -42 22 0 42 18 430 395 159 154 294 285 300
291 217 209 242 225 314 205 39 -12 52 -22 262 -215 216 -197 360 -337 360
-348 0 -4 -8 -8 -18 -8 -34 0 -359 -79 -439 -106 -204 -70 -318 -146 -369
-247 -58 -113 -39 -204 65 -307 66 -66 128 -104 276 -171 147 -66 236 -136
251 -195 24 -97 -174 -268 -476 -411 -141 -67 -473 -206 -745 -312 -115 -45
-120 -48 -123 -78 -2 -23 2 -33 15 -37 23 -7 46 -1 223 67 842 322 1191 540
1190 744 -1 113 -76 194 -256 279 -114 53 -232 122 -281 161 -46 38 -83 103
-83 146 0 70 73 157 175 209 71 36 295 111 304 102 3 -4 2 -9 -4 -11 -41 -17
-123 -75 -147 -104 -58 -72 -57 -165 2 -233 40 -45 153 -99 275 -131 404 -107
570 -204 652 -381 24 -52 28 -70 27 -154 0 -109 -26 -193 -95 -312 -40 -68
-166 -236 -220 -293 -32 -34 -37 -66 -14 -85 24 -20 54 -1 116 72 90 104 144
178 198 273 93 163 120 274 102 412 -16 110 -57 190 -145 278 -113 113 -265
182 -606 275 -63 18 -136 44 -163 58 -50 27 -87 74 -87 112 0 55 128 139 345
229 124 52 163 83 172 135 l6 38 -168 162 -167 161 108 106 c225 218 332 316
367 332 46 22 85 21 122 -2 17 -10 159 -137 315 -282 156 -145 363 -337 459
-427 182 -168 199 -179 228 -135 13 19 11 24 -19 58 -29 34 -162 159 -441 414
-51 46 -130 120 -177 165 -174 167 -302 278 -343 296 -52 24 -131 25 -176 3z"/>
<path d="M3518 4123 c-16 -20 -106 -169 -133 -222 -14 -28 -15 -38 -5 -57 11
-20 9 -30 -24 -84 -41 -70 -46 -109 -16 -117 26 -7 26 -8 -14 -74 -71 -119
-66 -129 70 -129 l104 0 0 -66 c0 -76 12 -104 43 -104 38 0 47 19 47 97 l0 72
108 3 c103 3 107 4 110 26 2 14 -12 49 -37 88 -23 36 -41 68 -41 72 0 4 9 13
20 20 29 18 25 44 -20 114 -35 55 -38 64 -25 78 8 9 15 21 15 26 0 15 -140
258 -154 266 -18 12 -32 9 -48 -9z m74 -221 c-22 -7 -12 -56 24 -116 35 -59
34 -75 -4 -76 -19 0 -8 -31 39 -112 22 -36 39 -69 39 -72 0 -3 -65 -6 -145 -6
-80 0 -145 3 -145 8 0 4 9 21 21 37 11 17 31 52 45 78 l25 48 -29 16 -29 17
38 60 c39 61 50 111 27 118 -8 3 -3 20 16 52 l28 48 31 -48 c21 -32 28 -49 19
-52z"/>
<path d="M1688 3669 c-10 -5 -38 -49 -64 -97 -26 -48 -69 -124 -96 -170 -52
-90 -58 -122 -29 -149 19 -18 18 -20 -34 -105 -30 -47 -57 -97 -60 -111 -8
-30 16 -57 51 -57 13 0 24 -2 24 -4 0 -3 -30 -54 -66 -115 -41 -70 -64 -119
-62 -133 3 -23 6 -23 157 -28 l154 -5 -2 -101 c-2 -108 7 -134 49 -134 31 0
40 32 40 139 l0 100 153 3 152 3 3 27 c2 20 -14 57 -57 127 -33 55 -62 105
-63 112 -2 6 11 13 27 16 67 9 64 40 -16 165 -27 42 -49 81 -49 85 0 5 9 14
20 21 11 7 20 20 20 29 0 24 -201 373 -220 383 -9 5 -23 4 -32 -1z m76 -240
c25 -45 46 -85 46 -89 0 -4 -9 -10 -20 -13 -36 -9 -26 -41 56 -173 24 -39 44
-74 44 -77 0 -4 -11 -7 -24 -7 -35 0 -56 -10 -56 -26 0 -18 40 -98 91 -183 22
-34 39 -67 39 -71 0 -5 -106 -8 -235 -7 -129 0 -235 4 -235 7 0 3 4 10 9 16
11 11 115 193 124 218 10 27 -10 46 -49 46 -19 0 -34 3 -34 6 0 3 11 20 24 37
44 60 97 167 94 189 -2 13 -12 27 -24 32 -21 9 -20 11 19 75 22 36 46 76 54
89 8 12 18 20 22 17 5 -2 30 -41 55 -86z"/>
<path d="M3883 3253 c-89 -143 -183 -314 -183 -332 0 -11 9 -26 20 -33 11 -7
20 -16 20 -19 0 -4 -27 -51 -60 -105 -33 -54 -60 -103 -60 -110 0 -21 39 -47
65 -42 14 3 25 3 25 0 0 -3 -29 -56 -65 -117 -36 -62 -65 -119 -65 -127 0 -33
23 -38 167 -38 l143 0 0 -104 c0 -82 3 -108 16 -120 19 -20 24 -20 52 0 20 14
22 23 22 120 l0 104 139 0 c77 0 146 3 155 6 28 11 17 48 -44 152 -33 55 -60
105 -60 110 0 5 13 12 30 15 52 11 49 43 -14 149 -59 98 -66 118 -41 118 8 0
17 11 21 24 4 17 -14 57 -72 157 -154 269 -160 274 -211 192z m106 -190 c28
-47 51 -90 51 -95 0 -4 -9 -8 -19 -8 -11 0 -23 -4 -26 -10 -9 -14 25 -87 79
-170 25 -39 46 -73 46 -75 0 -3 -11 -5 -24 -5 -38 0 -56 -10 -56 -31 0 -23 35
-94 90 -185 l40 -64 -88 -1 c-48 0 -153 -2 -235 -4 l-147 -4 35 62 c20 34 50
90 68 125 36 72 31 95 -22 100 -17 2 -31 5 -31 7 0 2 24 43 53 92 30 48 57 97
61 107 9 26 -2 56 -24 64 -16 6 -12 17 34 95 28 48 54 87 57 87 4 0 30 -39 58
-87z"/>
<path d="M1830 1635 l0 -225 45 0 45 0 0 100 0 100 40 0 40 0 0 40 0 40 -40 0
-40 0 0 85 0 85 -45 0 -45 0 0 -225z"/>
<path d="M2130 1825 c0 -35 0 -35 -44 -35 -42 0 -44 -2 -49 -32 -2 -18 -3 -35
-1 -37 2 -2 23 -5 46 -5 36 -1 44 -5 46 -22 4 -30 -34 -90 -74 -114 -39 -25
-40 -27 -15 -57 28 -34 55 -28 98 21 l39 45 37 -40 c38 -40 72 -50 95 -27 21
21 13 41 -33 88 -26 27 -47 59 -51 78 l-6 32 45 0 c34 0 46 4 49 18 9 39 -2
52 -47 52 -41 0 -43 1 -49 35 -7 33 -9 35 -46 35 -39 0 -40 -1 -40 -35z"/>
<path d="M2465 1850 c-4 -6 -4 -24 0 -40 10 -48 -3 -109 -23 -106 -14 2 -18
16 -20 75 l-3 72 -42 -3 c-36 -3 -42 -6 -41 -25 0 -13 1 -95 2 -183 l2 -160
40 0 40 0 0 75 c0 68 2 75 20 75 17 0 19 -8 22 -72 l3 -73 43 -3 42 -3 0 190
0 191 -39 0 c-22 0 -43 -5 -46 -10z"/>
<path d="M1570 1773 c0 -77 -37 -150 -96 -193 -40 -28 -42 -33 -32 -55 24 -52
70 -39 141 38 l37 42 21 -24 c55 -65 119 -89 139 -52 16 30 13 38 -25 61 -52
32 -95 112 -95 176 0 56 -8 64 -61 64 -29 0 -29 -1 -29 -57z"/>
<path d="M2859 1800 c-41 -21 -67 -56 -76 -100 -5 -30 -5 -30 41 -30 31 0 46
4 46 13 0 24 45 57 76 57 37 0 74 -36 74 -72 0 -34 -32 -61 -83 -67 -40 -6
-42 -8 -45 -43 -3 -37 -2 -38 30 -38 45 0 80 -20 96 -53 24 -50 -7 -97 -64
-97 -45 0 -73 15 -84 46 -8 21 -16 24 -56 24 l-46 0 6 -31 c15 -78 78 -123
171 -123 113 0 178 56 179 152 1 49 -2 56 -37 88 l-38 35 25 26 c42 42 46 113
9 170 -39 59 -152 81 -224 43z"/>
<path d="M3202 1812 c-9 -3 -12 -71 -12 -263 l0 -259 45 0 c42 0 45 2 46 28 1
47 8 102 14 113 11 17 22 7 72 -66 l48 -70 53 -3 c28 -2 52 0 52 4 0 3 -32 53
-70 110 l-71 104 61 74 c33 41 60 79 60 85 0 6 -20 11 -47 10 -47 0 -49 -1
-98 -67 -28 -37 -55 -66 -60 -64 -6 1 -11 59 -12 134 l-1 132 -34 1 c-19 1
-40 -1 -46 -3z"/>
<path d="M3560 1484 l0 -195 43 3 42 3 5 131 c4 111 8 135 24 153 22 25 44 27
72 7 17 -13 20 -31 24 -153 l5 -138 42 -3 41 -3 4 141 c3 127 5 143 22 156 29
21 63 17 80 -8 13 -18 16 -51 16 -155 l0 -133 45 0 45 0 0 150 c0 161 -7 193
-52 224 -34 24 -99 20 -140 -8 l-34 -23 -28 23 c-39 34 -108 33 -140 -1 -24
-26 -36 -24 -36 7 0 14 -8 18 -40 18 l-40 0 0 -196z"/>
<path d="M2137 1454 c-4 -4 -7 -22 -7 -41 l0 -33 165 0 165 0 0 -75 0 -75 45
0 45 0 0 110 0 110 -37 0 c-21 0 -112 3 -203 6 -91 3 -169 2 -173 -2z"/>
<path d="M1529 1445 c0 -3 -1 -49 -1 -102 l-1 -98 204 -3 c111 -1 206 1 210 5
4 5 5 23 2 41 l-5 32 -159 0 -159 0 0 65 0 65 -45 0 c-25 0 -45 -2 -46 -5z"/>
</g>
</svg>
