<svg width="41" height="13" viewBox="0 0 41 13" fill="none" xmlns="http://www.w3.org/2000/svg">
<path d="M0 0.31V12.36H1.42V0L0 0.31ZM1.93 7.96L5.67 12.57L6.77 11.71L3.6 7.88L6.34 4.42L5.23 3.61L1.93 7.96Z" fill="#000000"/>
<path d="M10.7 11.3401C10.9 11.3401 11.1 11.3101 11.31 11.2601C11.52 11.2101 11.73 11.1401 11.94 11.0601C12.15 10.9801 12.35 10.8701 12.53 10.7601C12.72 10.6401 12.88 10.5101 13.02 10.3801V8.39005H11.54C10.79 8.39005 10.24 8.52005 9.9 8.78005C9.56 9.04005 9.38 9.45005 9.38 10.0101C9.38 10.9001 9.82 11.3501 10.69 11.3501M8.03 10.0701C8.03 9.21005 8.32 8.55005 8.89 8.10005C9.46 7.65005 10.29 7.42005 11.39 7.42005H13.03V6.87005C13.03 5.55005 12.45 4.89005 11.3 4.89005C10.93 4.89005 10.54 4.94005 10.13 5.05005C9.72 5.15005 9.35 5.28005 9.01 5.44005L8.59 4.43005C9.01 4.19005 9.47 4.01005 9.96 3.88005C10.45 3.75005 10.93 3.68005 11.39 3.68005C13.39 3.68005 14.39 4.76005 14.39 6.91005V12.3601H13.34L13.17 11.4201C12.75 11.7601 12.3 12.0301 11.82 12.2201C11.34 12.4101 10.89 12.5001 10.45 12.5001C9.7 12.5001 9.11 12.2801 8.68 11.8501C8.25 11.4201 8.04 10.8201 8.04 10.0701" fill="black"/>
<path d="M22.14 3.62L23.25 4.43L20.51 7.89L23.68 11.72L22.58 12.58L18.84 7.97L22.13 3.62H22.14ZM18.34 12.36H16.92V0.31L18.34 0V12.36Z" fill="black"/>
<path d="M27.62 11.3401C27.81 11.3401 28.02 11.3101 28.23 11.2601C28.44 11.2101 28.65 11.1401 28.86 11.0601C29.07 10.9801 29.27 10.8701 29.45 10.7601C29.63 10.6401 29.8 10.5101 29.94 10.3801V8.39005H28.46C27.71 8.39005 27.16 8.52005 26.82 8.78005C26.48 9.04005 26.3 9.45005 26.3 10.0101C26.3 10.9001 26.74 11.3501 27.61 11.3501M24.95 10.0701C24.95 9.21005 25.24 8.55005 25.81 8.10005C26.38 7.65005 27.21 7.42005 28.31 7.42005H29.95V6.87005C29.95 5.55005 29.37 4.89005 28.22 4.89005C27.85 4.89005 27.46 4.94005 27.05 5.05005C26.64 5.15005 26.27 5.28005 25.93 5.44005L25.51 4.43005C25.93 4.19005 26.39 4.01005 26.88 3.88005C27.37 3.75005 27.85 3.68005 28.31 3.68005C30.31 3.68005 31.31 4.76005 31.31 6.91005V12.3601H30.26L30.09 11.4201C29.67 11.7601 29.22 12.0301 28.74 12.2201C28.26 12.4101 27.8 12.5001 27.37 12.5001C26.62 12.5001 26.03 12.2801 25.6 11.8501C25.17 11.4201 24.96 10.8201 24.96 10.0701" fill="black"/>
<path d="M37.03 4.85006C36.29 4.85006 35.72 5.13006 35.32 5.69006C34.92 6.25006 34.72 7.07006 34.72 8.15006C34.72 9.23006 34.92 10.0301 35.32 10.5701C35.72 11.1201 36.29 11.3901 37.03 11.3901C37.77 11.3901 38.36 11.1201 38.75 10.5701C39.15 10.0201 39.35 9.22006 39.35 8.15006C39.35 7.08006 39.15 6.25006 38.75 5.69006C38.35 5.13006 37.78 4.85006 37.03 4.85006ZM37.03 3.69006C38.2 3.69006 39.13 4.07006 39.8 4.84006C40.47 5.61006 40.81 6.71006 40.81 8.14006C40.81 9.57006 40.48 10.6401 39.81 11.4001C39.15 12.1601 38.22 12.5401 37.03 12.5401C35.84 12.5401 34.93 12.1601 34.26 11.4001C33.59 10.6401 33.25 9.56006 33.25 8.14006C33.25 6.72006 33.59 5.61006 34.26 4.84006C34.94 4.07006 35.86 3.69006 37.02 3.69006" fill="black"/>
</svg>
