<svg width="130" height="12" viewBox="0 0 130 12" fill="none" xmlns="http://www.w3.org/2000/svg">
<path d="M8.02 2.27997H5.08V11.12H2.93V2.27997H0V0.219971H8.02V2.27997Z" fill="#1E1E1E"/>
<path d="M15.96 9.06997V11.13H9.22V0.219971H15.88V2.27997H11.36V4.59997H15.49V6.61997H11.36V9.05997H15.95L15.96 9.06997Z" fill="#1E1E1E"/>
<path d="M16.89 5.67C16.89 2.48 19.26 0 22.56 0C24.55 0 26.31 1.01 27.25 2.57L25.4 3.64C24.87 2.67 23.81 2.08 22.57 2.08C20.44 2.08 19.04 3.56 19.04 5.66C19.04 7.76 20.44 9.23 22.57 9.23C23.82 9.23 24.89 8.64 25.4 7.69L27.25 8.76C26.33 10.32 24.57 11.33 22.56 11.33C19.26 11.33 16.89 8.84 16.89 5.66V5.67Z" fill="#1E1E1E"/>
<path d="M36.9 0.219971V11.12H34.77V6.59997H30.72V11.12H28.57V0.219971H30.72V4.54997H34.77V0.219971H36.9Z" fill="#1E1E1E"/>
<path d="M44.97 2.27997V4.85997H49.21V6.91997H44.97V11.12H42.82V0.219971H49.33V2.27997H44.97Z" fill="#1E1E1E"/>
<path d="M50.4 5.67C50.4 2.48 52.91 0 56.05 0C59.19 0 61.72 2.48 61.72 5.67C61.72 8.86 59.2 11.34 56.05 11.34C52.9 11.34 50.4 8.85 50.4 5.67ZM59.57 5.67C59.57 3.57 58.03 2.09 56.05 2.09C54.07 2.09 52.53 3.57 52.53 5.67C52.53 7.77 54.07 9.24 56.05 9.24C58.03 9.24 59.57 7.76 59.57 5.67Z" fill="#1E1E1E"/>
<path d="M67.02 7.33997H65.38V11.12H63.23V0.219971H67.59C69.6 0.219971 71.22 1.83997 71.22 3.82997C71.22 5.19997 70.36 6.42997 69.12 7.00997L71.53 11.12H69.21L67.01 7.33997H67.02ZM65.38 5.44997H67.59C68.4 5.44997 69.07 4.72997 69.07 3.82997C69.07 2.92997 68.4 2.22997 67.59 2.22997H65.38V5.44997Z" fill="#1E1E1E"/>
<path d="M91.53 11.12H89.4V4.04997L86.33 9.10997H86.08L83.01 4.05997V11.11H80.86V0.219971H83.07L86.2 5.36997L89.31 0.219971H91.52V11.12H91.53Z" fill="#1E1E1E"/>
<path d="M101.33 3.87997C101.33 5.91997 99.71 7.53997 97.61 7.53997H95.69V11.12H93.54V0.219971H97.6C99.7 0.219971 101.32 1.83997 101.32 3.87997H101.33ZM99.2 3.87997C99.2 2.92997 98.53 2.22997 97.61 2.22997H95.69V5.52997H97.61C98.53 5.52997 99.2 4.80997 99.2 3.87997Z" fill="#1E1E1E"/>
<path d="M107.98 9.15997H103.64L102.99 11.12H100.67L104.48 0.219971H107.14L110.97 11.12H108.63L107.98 9.15997ZM107.31 7.14997L105.82 2.69997L104.33 7.14997H107.32H107.31Z" fill="#1E1E1E"/>
<path d="M111.14 5.67C111.14 2.48 113.51 0 116.81 0C118.8 0 120.56 1.01 121.5 2.57L119.65 3.64C119.12 2.67 118.06 2.08 116.82 2.08C114.69 2.08 113.29 3.56 113.29 5.66C113.29 7.76 114.69 9.23 116.82 9.23C118.07 9.23 119.14 8.64 119.65 7.69L121.5 8.76C120.58 10.32 118.82 11.33 116.81 11.33C113.51 11.33 111.14 8.84 111.14 5.66V5.67Z" fill="#1E1E1E"/>
<path d="M129.99 2.27997H127.05V11.12H124.9V2.27997H121.97V0.219971H129.99V2.27997Z" fill="#1E1E1E"/>
<path d="M77.75 11.26C78.5342 11.26 79.17 10.6243 79.17 9.84004C79.17 9.0558 78.5342 8.42004 77.75 8.42004C76.9658 8.42004 76.33 9.0558 76.33 9.84004C76.33 10.6243 76.9658 11.26 77.75 11.26Z" fill="#1E1E1E"/>
<path d="M77.75 7C78.07 7 78.37 7.05 78.65 7.15L79.39 0.14C78.86 0.05 78.31 0 77.75 0C77.19 0 76.64 0.05 76.11 0.14L76.85 7.15C77.13 7.05 77.44 7 77.75 7Z" fill="#1E1E1E"/>
</svg>
